<?xml version="1.0" encoding="utf-8"?>
<!-- Generator: Adobe Illustrator 26.3.1, SVG Export Plug-In . SVG Version: 6.00 Build 0)  -->
<svg version="1.1" id="Ebene_1" xmlns="http://www.w3.org/2000/svg" xmlns:xlink="http://www.w3.org/1999/xlink" x="0px" y="0px"
	 viewBox="0 0 16 16" style="enable-background:new 0 0 16 16;" xml:space="preserve">
<path d="M6.7,10.7c1.5-0.4,3-0.7,2.3-2c-2.1-4-0.6-6.1,1.7-6.1s3.8,2.2,1.7,6.1c-0.7,1.3,0.8,1.6,2.3,2c1.3,0.3,1.4,1,1.4,2.1v0.6
	h-0.9c0-1.4,0.1-1.6-0.8-1.8c-1.4-0.3-2.6-0.6-3-1.6c-0.2-0.4-0.3-0.9,0.2-1.7c0.9-1.7,1.1-3.2,0.6-4c-0.6-1-2.4-1-3,0
	c-0.5,0.8-0.3,2.3,0.6,4C10.1,9.1,10,9.6,9.8,10c-0.4,1-1.6,1.2-2.9,1.5c-0.8,0.2-0.8,0.4-0.8,1.8H5.3C5.3,11.9,5.2,11.1,6.7,10.7z
	 M0,13.3h0.9c0-1.3-0.1-0.9,1.2-1.3c0.7-0.2,1.3-0.5,1.5-1.1c0.1-0.3,0.2-0.8-0.1-1.5C2.9,8.3,2.7,7.2,3.1,6.7
	c0.4-0.6,1.5-0.6,1.9,0c0.6,1-0.5,2.7-0.7,3.3h0.9C5.5,9.3,6,8.5,6,7.4c0-1.3-0.9-2.1-2-2.1c-1.7,0-2.8,1.6-1.2,4.6
	c0.5,1-0.6,1.2-1.7,1.5C0.1,11.6,0,12.1,0,13C0,12.9,0,13.3,0,13.3z"/>
</svg>
